<?xml version="1.0" encoding="utf-8"?>
<!-- Generator: Adobe Illustrator 27.6.1, SVG Export Plug-In . SVG Version: 6.00 Build 0)  -->
<svg version="1.1" id="Livello_1" xmlns="http://www.w3.org/2000/svg" xmlns:xlink="http://www.w3.org/1999/xlink" x="0px" y="0px"
	 viewBox="0 0 32 32" style="enable-background:new 0 0 32 32;" xml:space="preserve">
<style type="text/css">
	.st0{fill:#007F58;stroke:#000000;stroke-width:0.5284;stroke-miterlimit:10;}
	.st1{fill:#007F58;stroke:#000000;stroke-width:0.6782;stroke-miterlimit:10;}
</style>
<g>
	<path class="st0" d="M28.18,23.82l-3.07-3.45l-0.98-1.1h1.41c1,0,1.63-0.71,1.13-1.27l-2.46-2.77l-1.39-1.57h1.6
		c0.77,0,1.26-0.54,0.87-0.98l-1.9-2.13l-1.9-2.13c-0.39-0.44-1.36-0.44-1.74,0l-1.9,2.13l-1.9,2.13c-0.39,0.44,0.1,0.98,0.87,0.98
		h1.6l-1.39,1.57L14.59,18c-0.5,0.56,0.13,1.27,1.13,1.27h1.41l-0.98,1.1l-3.07,3.45c-0.63,0.71,0.16,1.59,1.41,1.59h5.14v4.76h1.99
		v-4.76h5.14C28.02,25.41,28.81,24.53,28.18,23.82z"/>
	<path class="st1" d="M23.26,22.02l-3.94-4.43l-1.26-1.41h1.82c1.29,0,2.09-0.91,1.45-1.63L18.18,11l-1.79-2.01h2.05
		c0.99,0,1.62-0.7,1.12-1.26l-2.43-2.74l-2.43-2.74c-0.5-0.56-1.74-0.56-2.24,0l-2.43,2.74L7.59,7.73c-0.5,0.56,0.12,1.26,1.12,1.26
		h2.05L8.97,11l-3.15,3.55c-0.64,0.72,0.16,1.63,1.45,1.63h1.82l-1.26,1.41l-3.94,4.43c-0.8,0.91,0.2,2.04,1.81,2.04h6.6v6.11h2.55
		v-6.11h6.6C23.06,24.06,24.07,22.93,23.26,22.02z"/>
</g>
</svg>
